<?xml version="1.0" encoding="UTF-8" standalone="no"?>
<svg
   width="14px"
   height="9px"
   viewBox="0 0 14 9"
   version="1.1"
   id="svg9"
   sodipodi:docname="project-arrow2.svg"
   inkscape:version="1.1.1 (3bf5ae0d25, 2021-09-20)"
   xmlns:inkscape="http://www.inkscape.org/namespaces/inkscape"
   xmlns:sodipodi="http://sodipodi.sourceforge.net/DTD/sodipodi-0.dtd"
   xmlns="http://www.w3.org/2000/svg"
   xmlns:svg="http://www.w3.org/2000/svg">
  <defs
     id="defs13" />
  <sodipodi:namedview
     id="namedview11"
     pagecolor="#505050"
     bordercolor="#ffffff"
     borderopacity="1"
     inkscape:pageshadow="0"
     inkscape:pageopacity="0"
     inkscape:pagecheckerboard="1"
     showgrid="false"
     inkscape:zoom="89.428571"
     inkscape:cx="7"
     inkscape:cy="4.5007987"
     inkscape:window-width="1920"
     inkscape:window-height="1013"
     inkscape:window-x="-9"
     inkscape:window-y="-9"
     inkscape:window-maximized="1"
     inkscape:current-layer="svg9" />
  <g
     id="Page-1"
     stroke="none"
     stroke-width="1"
     fill="none"
     fill-rule="evenodd"
     style="fill:#25ac4e;fill-opacity:1">
    <g
       id="Home"
       transform="translate(-1517.000000, -4879.000000)"
       fill="#4C60E6"
       fill-rule="nonzero"
       style="fill:#25ac4e;fill-opacity:1">
      <g
         id="Recent-Articles"
         transform="translate(0.000000, 4765.000000)"
         style="fill:#25ac4e;fill-opacity:1">
        <g
           id="Button"
           transform="translate(1405.000000, 114.000000)"
           style="fill:#25ac4e;fill-opacity:1">
          <g
             id="Group-8"
             style="fill:#25ac4e;fill-opacity:1">
            <g
               id="Group-7-Copy"
               transform="translate(112.000000, 0.000000)"
               style="fill:#25ac4e;fill-opacity:1">
              <path
                 d="M10.5857864,5.5 L1.5,5.5 C0.94771525,5.5 0.5,5.05228475 0.5,4.5 C0.5,3.94771525 0.94771525,3.5 1.5,3.5 L10.5857864,3.5 L8.79289322,1.70710678 C8.40236893,1.31658249 8.40236893,0.683417511 8.79289322,0.292893219 C9.18341751,-0.0976310729 9.81658249,-0.0976310729 10.2071068,0.292893219 L13.7071068,3.79289322 C14.0976311,4.18341751 14.0976311,4.81658249 13.7071068,5.20710678 L10.2071068,8.70710678 C9.81658249,9.09763107 9.18341751,9.09763107 8.79289322,8.70710678 C8.40236893,8.31658249 8.40236893,7.68341751 8.79289322,7.29289322 L10.5857864,5.5 Z"
                 id="Combined-Shape"
                 style="fill:#25ac4e;fill-opacity:1" />
            </g>
          </g>
        </g>
      </g>
    </g>
  </g>
</svg>
